<svg width="290" height="291" viewBox="0 0 290 291" fill="none" xmlns="http://www.w3.org/2000/svg">
<path fill-rule="evenodd" clip-rule="evenodd" d="M23.061 117.083L24.9836 110.055L23.6354 109.281C23.1567 108.994 22.7658 108.603 22.4786 108.028C20.6517 104.175 18.8168 102.54 18.051 97.7212C16.7985 90.0147 20.8432 83.5687 26.2362 78.4629C26.9143 77.8805 27.6801 77.5933 28.5497 77.6891C29.4113 77.7848 30.0894 78.1757 30.5681 78.9416L34.908 85.2999L35.1952 85.5871L38.0831 77.6891C38.2746 77.2104 38.5618 76.7238 38.9527 76.4366C39.6228 75.8622 40.3967 75.2798 41.1625 74.9926C42.415 73.07 44.3456 68.3471 44.92 66.9032C45.2072 66.0336 45.8854 65.3634 46.747 65.172C39.2399 59.2924 37.5087 50.1419 42.8059 39.2602C48.869 26.9346 62.4472 15.5663 75.1637 10.66C88.0717 5.64996 105.216 0.0655306 118.307 6.61527C118.507 -4.3701 161.172 0.927127 167.522 4.11025C168.392 4.58891 168.974 5.26703 169.07 6.22436C169.166 7.18966 168.87 8.05924 168.2 8.72937C174.072 7.18966 180.43 7.18966 186.597 7.66833C203.55 8.8251 225.6 17.5927 233.594 33.6758C233.785 33.963 233.881 34.3539 233.881 34.7369C234.272 38.973 230.419 45.6185 226.183 51.4901C227.435 51.2029 228.68 51.7853 229.262 52.9421C231.576 57.0825 236.29 62.4755 239.274 66.5202C244.188 73.3572 249.007 80.7685 252.182 88.5707C252.374 88.0921 252.565 87.6134 252.86 87.1268L256.227 79.133C256.618 78.1757 257.384 77.5933 258.445 77.4019C259.506 77.2104 260.367 77.5933 261.045 78.3672C264.994 82.9863 269.805 89.536 269.613 95.99C269.422 100.904 266.63 104.462 263.646 108.124C263.55 108.22 263.55 108.22 263.455 108.316L261.716 110.055L263.159 114.482L264.994 114.387C266.343 114.291 267.499 115.057 267.882 116.309L270.675 124.207C270.962 124.981 270.866 125.747 270.483 126.521C270.1 127.287 269.518 127.773 268.656 127.965L267.691 128.252C269.039 133.166 271.057 137.594 270.675 142.796C277.799 142.508 282.33 140.482 284.253 150.981C285.027 155.225 285.896 166.202 282.426 169.96C281.078 173.422 279.147 177.467 276.841 181.224C277.703 181.607 278.285 182.285 278.477 183.251C281.078 195.289 283.096 207.902 285.027 220.036C286.279 227.743 287.436 235.449 288.497 243.251C289.071 247.775 290.037 254.133 289.646 258.561C289.071 266.65 281.652 276.67 274.719 280.619C273.658 281.194 272.501 281.098 271.544 280.428C270.483 283.794 268.752 286.882 266.055 289.482C265.377 290.057 264.611 290.344 263.742 290.248C262.872 290.153 262.106 289.77 261.62 288.996C254.687 278.984 251.416 264.536 245.92 253.359C243.997 249.314 242.553 247.105 241.683 245.078C218.285 270.12 187.849 287.36 153.274 289.092C114.654 291.022 79.3999 273.008 51.2783 247.871C51.0869 258.465 42.7022 272.043 37.5087 280.811C37.405 280.906 37.405 281.002 37.3093 281.098L31.5334 288.421C30.959 289.187 30.1851 289.578 29.2198 289.482C28.2625 289.482 27.4887 288.996 26.9143 288.23C21.8085 281.002 19.9736 277.444 19.2077 271.947C18.8168 273.974 18.6254 275.992 18.4339 277.731C18.2424 279.079 17.1814 280.141 15.7374 280.236C14.2935 280.332 13.1367 279.462 12.7537 278.018C12.658 277.827 12.658 277.636 12.5623 277.34C12.1714 277.827 11.6927 278.306 11.0226 278.497C9.8658 278.888 8.61329 278.497 7.83945 277.444C6.10828 275.035 2.44649 271.852 1.28971 269.546C-0.441459 266.076 0.0372059 258.369 0.132939 254.612C0.332382 245.661 0.906781 236.797 1.38545 227.838C2.15929 213.973 2.82942 188.157 8.90049 176.119C9.28342 175.353 9.8658 174.866 10.7274 174.675C9.47489 172.074 8.51756 169.186 7.93518 165.333C6.39548 158.974 6.97785 152.52 9.37916 146.457C9.67433 145.683 10.2487 145.109 11.0226 144.822C12.3708 144.335 13.5196 144.048 14.6764 143.857C14.6764 143.474 14.6764 143.178 14.7721 142.796L19.9736 122.668C19.9736 122.572 19.9736 122.572 20.0693 122.476C20.1651 122.285 20.1651 122.189 20.2688 121.998L22.6701 116.597L23.061 117.083ZM223.869 54.769C223.486 55.2477 223.191 55.6386 222.808 56.1172C223.486 56.213 224.156 56.5002 224.539 56.9868L223.965 55.5349C223.869 55.2477 223.773 54.9605 223.773 54.769H223.869ZM58.5939 71.8174C58.6897 71.626 58.8891 71.4265 58.9848 71.2351C59.5592 70.4692 60.3331 69.9826 61.2904 69.9826C61.777 69.9826 62.2557 70.0783 62.6386 70.2777C62.4472 69.5996 62.2557 69.0252 62.16 68.3471C61.3941 69.0252 60.6203 69.6954 59.1763 70.2777C59.0806 70.3735 58.8891 70.3735 58.7934 70.3735C58.7934 70.5649 58.7934 70.6607 58.7934 70.8521C58.6897 71.1393 58.6897 71.4265 58.5939 71.7217V71.8174ZM29.9937 148.38C29.9937 148.188 29.8979 148.093 29.8979 147.997H29.8022C29.8979 148.093 29.8979 148.284 29.9937 148.38ZM46.5555 201.352C47.2336 201.161 47.9037 201.257 48.4861 201.544C49.3477 201.935 50.1215 202.318 50.7997 202.7C48.9648 200.291 47.3293 197.794 45.7896 195.289C45.8854 195.672 45.8854 195.959 45.9811 196.342C46.1726 197.986 46.364 199.717 46.5555 201.352ZM187.171 76.2451C185.919 77.4019 185.44 77.2104 185.057 77.8805C186.015 77.8805 187.076 77.7848 188.137 77.6891C187.945 77.5933 187.849 77.4019 187.658 77.2104C187.459 76.9232 187.267 76.628 187.171 76.2451ZM209.326 66.8074C210.865 65.6506 212.405 64.3981 213.753 63.2414C212.987 62.7627 212.501 61.9889 212.405 61.0315C212.405 60.7364 212.405 60.4492 212.309 60.0662C211.44 62.284 210.578 64.5896 209.326 66.8074ZM241.779 202.605C242.361 202.509 243.032 202.605 243.614 202.892C243.805 201.743 243.997 200.586 244.188 199.525C243.423 200.586 242.649 201.544 241.779 202.605ZM277.224 259.239C276.163 259.239 275.206 258.752 274.624 257.795C273.754 256.351 272.892 254.516 271.927 252.785C272.406 257.404 272.988 262.318 273.084 267.137L274.432 261.84C274.624 260.874 275.302 260.204 276.163 259.813C276.554 259.717 276.841 259.43 277.129 259.239H277.224Z" fill="#282829"/>
<path fill-rule="evenodd" clip-rule="evenodd" d="M261.333 127.287L252.86 132.688C255.652 148.476 258.923 164.758 255.652 181.129C251.512 202.222 247.268 178.624 244.962 221.775C244.571 229.282 244.962 225.724 244.093 233.423C242.744 244.695 244.188 242.964 248.72 252.306C253.626 262.414 258.253 278.984 264.125 287.552C274.049 277.731 269.135 260.587 268.656 246.044C274.049 248.644 269.422 243.06 277.128 256.351C284.739 221.576 251.512 176.406 259.21 143.378C263.455 148.189 261.811 148.675 261.811 148.867L267.404 145.492C269.135 138.847 265.664 132.975 264.22 126.425L261.237 127.287H261.333Z" fill="#FC1AA2"/>
<path fill-rule="evenodd" clip-rule="evenodd" d="M269.039 145.875L261.045 155.026C260.95 165.237 263.16 181.129 268.074 188.157C272.023 184.304 277.224 176.119 280.017 168.412C282.617 167.064 282.33 156.278 281.461 151.659C279.825 142.7 276.65 145.979 269.039 145.875Z" fill="#FEC175"/>
<path fill-rule="evenodd" clip-rule="evenodd" d="M268.169 191.436C270.004 205.206 291.289 257.308 277.32 262.605L273.371 278.306C279.147 275.035 286.279 265.98 286.853 258.561C287.627 248.261 277.607 192.784 275.78 184.017L268.265 191.436H268.169Z" fill="#E72798"/>
<path fill-rule="evenodd" clip-rule="evenodd" d="M258.445 109.664C251.703 111.978 250.642 112.361 248.911 119.006L261.045 117.849L258.349 109.664H258.445Z" fill="#D0308E"/>
<path fill-rule="evenodd" clip-rule="evenodd" d="M116.576 199.142C135.938 206.841 153.752 199.621 172.341 200.778C163.964 209.833 165.216 225.238 151.535 237.954C137.382 239.781 134.103 234.484 129.093 224.081C126.979 219.557 125.344 215.513 123.221 211.564C122.16 209.537 120.716 207.327 119.464 205.301C115.802 199.43 118.211 203.761 116.672 199.142H116.576ZM137.286 185.269C139.113 179.11 140.078 177.562 146.333 175.448C151.925 179.206 152.596 181.902 154.718 189.122C149.229 185.173 151.343 183.825 146.333 178.719C139.017 181.033 144.506 179.302 140.653 182.764C137.765 185.46 141.618 182.86 137.286 185.269ZM118.698 77.1146C143.158 70.4691 139.887 99.2608 126.5 93.485C119.951 87.4139 123.317 84.3345 110.313 83.2734C112.627 79.9068 111.662 79.0372 118.698 77.1146ZM158.18 74.5139C167.817 73.8357 170.218 74.8011 178.412 78.3671C176.098 81.1593 178.316 79.3244 175.324 81.3508C174.941 81.638 173.593 82.1167 173.21 82.3161C161.459 88.9616 171.958 89.3445 159.433 93.485L152.787 89.6317L153.274 81.1593L158.18 74.5139ZM50.7994 111.299L54.7484 111.499C65.7258 99.0694 69.2839 81.7337 91.8211 94.7375C104.921 102.348 115.515 113.326 121.778 128.156C124.57 130.757 122.065 123.242 123.604 130.47L122.839 141.447L125.048 146.649C125.048 146.649 125.631 150.598 125.631 150.885C127.553 165.62 126.596 164.463 122.934 177.371C114.262 183.825 97.9879 187.295 85.5665 181.033C75.9294 176.214 63.4123 169.282 59.8462 158.687C53.3922 150.406 51.1824 144.335 49.5469 133.071L47.0419 134.419V127.39C46.2681 128.156 45.6937 130.853 45.3028 131.435C41.649 147.518 38.0829 168.221 43.7631 184.399C48.3902 197.595 62.1598 212.625 69.6748 218.496C84.8884 230.535 120.716 259.622 149.612 257.986C167.043 257.021 197.191 239.302 210.386 229.091C223.773 218.784 248.424 195.193 251.416 180.163C253.722 168.803 251.512 151.85 249.677 140.003C248.424 131.722 249.294 132.392 244.092 128.643C240.239 130.183 243.518 128.348 241.492 130.47C241.204 130.757 241.204 135.185 240.143 132.584C240.048 132.297 239.761 133.358 239.473 133.741C236.482 146.266 234.176 149.632 229.358 158.591C219.633 182.381 183.613 191.053 171.67 178.336C171.375 178.049 170.992 177.562 170.801 177.371C170.609 177.18 170.123 176.701 169.931 176.406C164.443 168.316 168.104 139.229 169.548 131.14L168.583 129.696C172.819 119.397 179.664 109.951 186.693 103.888C222.808 72.296 221.938 102.444 234.559 111.403C238.795 109.089 241.396 109.568 240.917 103.018C237.926 98.3035 231.184 75.0883 222.425 58.9094C216.067 65.9378 194.104 84.3345 181.204 80.0983C182.935 74.0272 183.509 76.0536 186.014 73.2613C189.772 69.2166 195.652 54.5774 195.165 51.7852C190.155 42.6348 183.414 36.9466 174.558 31.6494C159.919 31.8488 149.229 44.6531 142.871 50.9157C130.737 46.5837 117.35 32.7104 103.963 29.9182C100.301 35.1197 97.7007 35.8936 93.6559 40.8956C70.8316 69.3124 88.8374 73.74 89.5155 88.1877C74.1025 90.0146 69.6748 83.6643 61.2902 72.7747C61.003 73.1656 60.6201 73.6443 60.5243 73.9315C60.3329 74.2267 59.942 74.7053 59.7505 75.0883C56.3839 81.638 50.8952 105.14 50.6957 111.299H50.7994Z" fill="#FEC175"/>
<path fill-rule="evenodd" clip-rule="evenodd" d="M240.526 242.478C235.429 232.848 242.361 219.653 242.361 205.397C238.317 208.285 236.099 211.851 232.924 215.034C212.987 235.258 171.67 264.249 144.602 262.414C120.238 260.779 85.2713 238.337 68.0394 223.411C64.3776 220.228 60.6201 216.861 57.5407 213.877C52.4349 208.772 54.6447 207.519 47.2334 204.145C47.6163 215.991 52.4349 236.415 50.8952 243.826C119.081 307.01 192.181 294.971 240.431 242.573L240.526 242.478Z" fill="#FC1AA2"/>
<path fill-rule="evenodd" clip-rule="evenodd" d="M58.0194 67.6771C61.8727 65.9379 60.1415 65.0763 64.1862 63.9196C66.3961 77.1148 71.5018 83.9517 84.6013 84.8213C80.748 70.6608 74.8764 65.7465 83.1573 50.4372C88.9332 39.8427 95.483 32.0405 104.633 26.456C116.768 28.4744 131.311 42.1483 142.679 46.3924C148.647 39.5475 160.015 28.6659 174.654 27.9957C185.823 33.1015 193.147 40.3214 198.444 50.142C198.827 62.0847 193.051 66.6161 189.963 75.3756C207.786 73.9317 208.264 59.9706 212.987 51.8811C215.588 55.0563 214.623 52.5513 215.389 60.7364C215.389 60.7364 231.671 42.0525 231.089 35.1199C224.739 22.5071 206.438 12.1041 186.405 10.7558C151.734 8.34654 156.736 26.0651 143.062 38.6859C123.9 25.2993 129.771 -7.54514 76.2247 13.4523C50.8953 23.3687 25.4622 58.04 58.1152 67.6771H58.0194Z" fill="#FC1AA2"/>
<path fill-rule="evenodd" clip-rule="evenodd" d="M24.6964 146.84C30.2808 145.588 30.8632 143.179 32.2114 145.779C34.517 150.311 31.6291 167.359 30.8632 172.656C24.6964 213.582 8.99618 250.28 15.7374 277.731C16.607 270.312 17.4686 265.206 21.8085 261.84C21.9042 275.322 22.3828 276.958 29.4112 286.882L35.1951 279.558C56.4798 243.539 46.364 249.897 44.6328 220.132C44.2499 213.199 44.1541 203.57 43.1888 196.829C42.2235 190.184 38.6575 185.269 37.2135 177.467C34.1341 160.905 38.6575 147.519 40.0057 131.723C36.5434 132.01 27.9673 133.741 27.9673 129.409C26.5233 128.444 27.3929 129.601 25.1751 126.713C25.0793 126.617 23.6354 124.208 23.2524 124.016L17.9552 144.144L24.7921 147.032L24.6964 146.84Z" fill="#FC1AA2"/>
<path fill-rule="evenodd" clip-rule="evenodd" d="M49.4512 133.07C51.1823 144.335 53.2964 150.406 59.7505 158.687C69.3876 163.793 71.8846 171.212 84.4097 177.179C98.8574 184.112 108.869 180.554 122.839 177.371C126.5 164.463 127.458 165.62 125.535 150.885C125.535 150.693 124.953 146.744 124.953 146.649L122.743 141.447C118.211 185.756 72.1798 165.141 90.1856 124.111C92.5949 118.623 93.3687 119.588 97.214 116.118C100.397 113.23 97.7964 115.735 99.8147 113.421C90.1856 109.185 77.7642 103.984 67.9356 110.055C62.8378 113.134 53.5916 126.808 49.4512 133.07Z" fill="#C8FD9A"/>
<path fill-rule="evenodd" clip-rule="evenodd" d="M192.955 112.169C194.974 118.144 196.904 114.291 202.201 125.939C204.411 130.662 205.664 137.69 205.951 143.474C206.821 159.653 200.271 165.333 184.092 165.141C179.951 161.001 175.42 158.209 172.915 151.659C169.07 142.03 172.819 137.985 169.549 131.236C168.105 139.23 164.538 168.412 169.931 176.51C170.123 176.797 170.61 177.276 170.801 177.467C170.992 177.658 171.375 178.049 171.671 178.432C211.152 185.365 207.882 173.518 229.358 158.687C234.176 149.824 236.482 146.457 239.474 133.837C237.543 129.792 232.437 123.729 229.645 120.067C226.278 115.735 222.712 113.517 218.572 108.507C208.073 106.585 201.619 108.994 192.955 112.073V112.169Z" fill="#C8FD9A"/>
<path fill-rule="evenodd" clip-rule="evenodd" d="M28.2625 108.699C33.7512 110.821 38.0831 114.195 41.5534 118.91L25.7575 118.049L23.1567 123.825C23.5397 124.016 24.9836 126.521 25.0794 126.521C27.2972 129.409 26.4276 128.252 27.8716 129.217L45.2072 131.531C45.5981 130.853 46.1725 128.252 46.9464 127.486V134.515L49.4514 133.166C53.5919 126.904 62.8381 113.326 67.9359 110.151C77.8602 104.08 90.1858 109.281 99.815 113.517C104.538 116.501 106.077 117.753 110.409 121.128L115.037 124.79C120.238 128.835 116.098 126.808 121.778 128.252C115.515 113.422 104.921 102.444 91.8212 94.8334C69.2841 81.8296 65.6303 99.0696 54.7486 111.595L50.7996 111.403L44.1542 104.949C43.9547 104.271 43.3803 104.271 43.0931 103.984C41.354 99.0696 38.5618 98.6866 35.961 91.8497L32.5944 87.1269L28.1588 80.6729C14.4849 93.5809 23.4439 103.505 24.9836 106.872L28.2625 108.802V108.699Z" fill="#010101"/>
<path fill-rule="evenodd" clip-rule="evenodd" d="M258.444 109.664L261.332 106.68C267.013 99.5562 270.674 94.7377 258.732 80.5771L255.365 88.5709C252.565 94.4505 252.669 96.9555 250.546 102.923L245.441 103.697L245.632 103.019L240.917 103.114C241.396 109.664 238.699 109.185 234.559 111.499C221.938 102.444 222.808 72.392 186.693 103.984C179.664 110.055 172.819 119.493 168.583 129.792L177.733 123.242C183.031 117.945 186.31 116.31 192.955 112.169C201.523 109.09 208.073 106.68 218.572 108.603C222.616 113.613 226.278 115.831 229.645 120.163C232.437 123.825 237.638 129.888 239.473 133.932C239.761 133.549 240.048 132.488 240.143 132.784C241.204 135.384 241.204 130.949 241.492 130.661C243.518 128.539 240.239 130.374 244.092 128.835C254.878 131.34 248.52 130.757 261.332 127.486L264.316 126.617L267.978 125.556L265.186 117.658L261.045 117.945L248.911 119.102C250.642 112.456 251.607 111.978 258.444 109.76V109.664Z" fill="#010101"/>
<path fill-rule="evenodd" clip-rule="evenodd" d="M10.44 276.191C10.6315 269.155 8.70886 261.648 9.96137 253.75C12.5621 237.467 20.7473 212.72 24.2176 191.627L11.7883 177.754C6.20385 188.835 5.33428 214.547 4.56841 228.421C4.08177 237.467 3.50737 245.948 3.3159 255.098C2.92499 272.625 3.50737 266.849 10.44 276.191Z" fill="#FC1AA2"/>
<path fill-rule="evenodd" clip-rule="evenodd" d="M135.938 230.056C142.679 226.977 148.455 228.03 155.196 229.578C153.37 233.91 152.309 236.319 146.237 236.606C137.957 237.085 138.443 232.657 135.938 230.056ZM121.586 204.44L167.426 203.762L164.634 211.947L153.082 212.434L149.708 212.529L126.11 211.66L121.586 204.344V204.44ZM116.672 199.047C118.212 203.666 115.802 199.334 119.464 205.206C120.717 207.232 122.161 209.442 123.222 211.468C125.344 215.417 126.883 219.462 129.093 223.985C134.103 234.388 137.478 239.781 151.535 237.859C165.217 225.046 163.964 209.641 172.341 200.682C153.753 199.526 135.938 206.745 116.576 199.047H116.672Z" fill="#010101"/>
<path fill-rule="evenodd" clip-rule="evenodd" d="M99.6233 123.633L110.609 121.511C127.458 153.198 94.4218 174.962 93.273 139.716L97.0226 137.69L91.5339 136.054L91.2467 128.061C93.656 126.138 95.0999 124.303 99.5276 123.633H99.6233ZM122.839 141.447L123.604 130.47C122.16 123.242 124.57 130.757 121.778 128.156C116.097 126.712 120.238 128.739 115.036 124.694C113.305 123.346 112.053 122.38 110.409 121.032C106.077 117.658 104.442 116.405 99.8148 113.421C97.8922 115.735 100.493 113.23 97.214 116.118C93.3688 119.588 92.5949 118.623 90.1856 124.112C72.2756 165.141 118.307 185.756 122.743 141.447H122.839Z" fill="#51ED25"/>
<path fill-rule="evenodd" clip-rule="evenodd" d="M177.733 123.146L181.3 124.886C184.858 115.344 194.878 120.841 197.766 135.289C199.888 145.875 197.574 150.981 191.798 156.469C180.526 155.895 178.795 150.215 178.116 138.464C173.21 136.054 174.654 132.01 174.271 126.138L168.679 129.696L169.644 131.14C172.915 137.881 169.261 142.03 173.019 151.563C175.619 158.017 180.047 160.905 184.187 165.046C200.366 165.237 206.916 159.557 206.047 143.378C205.759 137.498 204.507 130.566 202.297 125.843C196.904 114.195 194.973 118.049 193.051 112.073C186.405 116.214 183.126 117.753 177.829 123.146H177.733Z" fill="#51ED25"/>
<path fill-rule="evenodd" clip-rule="evenodd" d="M121.1 6.9025C125.152 11.4259 127.554 14.1224 131.989 19.6111C133.625 21.6374 135.643 23.8552 137.191 25.9693C140.94 31.2666 137.478 28.953 142.967 32.2319C160.781 9.79045 145.089 26.6474 166.174 6.9025C158.276 2.95351 121.004 1.0229 121.1 6.9025Z" fill="#FC1AA2"/>
<path fill-rule="evenodd" clip-rule="evenodd" d="M11.118 165.141C12.562 175.736 18.7208 181.129 22.4784 187.391C24.5047 185.365 23.8266 187.487 25.3663 184.017C26.1401 182.285 26.1401 180.841 26.6188 178.624C28.9324 166.107 31.6288 158.4 27.2012 148.962C22.965 148.093 17.955 145.779 12.4663 147.806C10.4399 153.007 9.67406 158.974 11.2138 165.046L11.118 165.141Z" fill="#FEC175"/>
<path fill-rule="evenodd" clip-rule="evenodd" d="M99.6235 123.633C101.937 130.087 101.841 133.166 97.0227 137.594L93.2732 139.62C94.3263 174.962 127.362 153.103 110.609 121.415L99.6235 123.537V123.633Z" fill="#010101"/>
<path fill-rule="evenodd" clip-rule="evenodd" d="M181.3 124.981C183.613 131.627 185.345 134.993 178.117 138.559C178.795 150.215 180.43 155.895 191.799 156.573C197.574 151.076 199.888 145.979 197.766 135.384C194.878 120.937 184.858 115.448 181.3 124.981Z" fill="#010101"/>
<path fill-rule="evenodd" clip-rule="evenodd" d="M40.7795 78.846L35.9609 91.754C38.5617 98.5909 41.3539 98.9738 43.093 103.888C51.7569 101.958 45.3986 105.715 51.5654 87.1269C53.496 81.1595 54.8443 76.6281 55.9931 70.4693L47.7122 68.1558C47.6164 68.443 42.9973 80.0027 42.032 78.0721C41.8405 77.7849 41.2582 78.6545 40.8752 78.9417L40.7795 78.846Z" fill="#FC1AA2"/>
<path fill-rule="evenodd" clip-rule="evenodd" d="M126.014 211.755L149.612 212.625L152.979 212.529L164.538 212.043L167.331 203.857L121.49 204.536L126.014 211.755Z" fill="white"/>
<path fill-rule="evenodd" clip-rule="evenodd" d="M153.178 81.1594L152.691 89.6318L159.337 93.485C171.862 89.3445 161.363 88.9616 173.114 82.3162C173.497 82.1167 174.846 81.638 175.229 81.3508C178.212 79.2288 175.907 81.0636 178.316 78.3672C170.027 74.8968 167.626 73.8358 158.084 74.5139L153.178 81.1594Z" fill="#AD156D"/>
<path fill-rule="evenodd" clip-rule="evenodd" d="M110.313 83.2734C123.317 84.3345 119.951 87.4139 126.5 93.4849C139.887 99.2608 143.158 70.4691 118.698 77.1146C111.662 79.0372 112.627 79.9068 110.313 83.2734Z" fill="#AD156D"/>
<path fill-rule="evenodd" clip-rule="evenodd" d="M245.728 102.923L245.441 103.601C249.485 96.9555 252.373 97.147 249.581 90.1106C243.422 74.4183 229.645 59.6834 226.757 54.4819L245.728 102.923Z" fill="#E72798"/>
<path fill-rule="evenodd" clip-rule="evenodd" d="M171.67 178.336C183.709 191.149 219.633 182.381 229.358 158.591C207.786 173.422 211.152 185.173 171.67 178.336Z" fill="#051804"/>
<path fill-rule="evenodd" clip-rule="evenodd" d="M122.839 177.275C108.87 180.458 98.8574 184.016 84.4097 177.084C71.8846 171.108 69.3876 163.697 59.7505 158.591C63.3165 169.186 75.8336 176.118 85.4708 180.937C97.8921 187.2 114.167 183.633 122.839 177.275Z" fill="#051804"/>
<path fill-rule="evenodd" clip-rule="evenodd" d="M155.196 229.578C148.455 228.03 142.679 226.977 135.938 230.056C138.443 232.753 137.956 237.085 146.237 236.606C152.308 236.319 153.369 233.91 155.196 229.578Z" fill="#ED88AB"/>
<path fill-rule="evenodd" clip-rule="evenodd" d="M174.271 126.234C174.654 132.105 173.21 136.15 178.117 138.559C185.44 134.993 183.613 131.627 181.3 124.981L177.734 123.242L174.271 126.234Z" fill="#F3EEE7"/>
<path fill-rule="evenodd" clip-rule="evenodd" d="M97.0229 137.594C101.841 133.166 101.937 130.087 99.6237 123.633C95.1003 124.303 93.6563 126.138 91.3428 128.06L91.63 136.054L97.1187 137.69L97.0229 137.594Z" fill="#F3EEE7"/>
<path fill-rule="evenodd" clip-rule="evenodd" d="M25.7573 118.049L41.5533 118.91C38.1787 114.195 33.8468 110.917 28.2623 108.699L25.7573 118.049Z" fill="#D0308E"/>
<path fill-rule="evenodd" clip-rule="evenodd" d="M137.287 185.269C141.619 182.86 137.861 185.365 140.653 182.764C144.506 179.206 138.922 180.937 146.333 178.719C151.343 183.729 149.134 185.173 154.718 189.122C152.692 181.902 151.926 179.301 146.333 175.448C140.079 177.562 139.114 179.11 137.287 185.269Z" fill="#4A0610"/>
</svg>
