<svg width="367" height="256" viewBox="0 0 367 256" fill="none" xmlns="http://www.w3.org/2000/svg">
<path fill-rule="evenodd" clip-rule="evenodd" d="M125.968 206.355C123.878 205.007 125.594 208.812 122.833 203.587C119.842 197.994 122.083 202.095 121.86 198.888C166.511 207.919 148.29 200.826 187.118 200.826C198.175 200.826 209.153 203.291 220.72 203.738C234.61 204.337 243.72 202.47 256.118 200.683C253.876 209.49 239.245 223.89 232.368 228.892C211.019 244.345 175.175 248.079 151.202 234.788C143.663 230.607 128.282 214.484 125.968 206.427V206.355ZM264.925 148.428C267.765 154.101 270.525 155.521 268.435 164.256C266.497 172.17 254.921 183.515 250.142 184.855C238.343 188.142 228.411 187.168 217.362 183.515C206.687 180.004 202.132 156.566 210.198 140.746C208.778 139.996 209.894 139.773 206.241 139.773C205.714 139.773 203.401 140.299 201.606 140.299L201.382 113.645L204.964 121.408C224.829 118.727 244.47 111.108 266.497 109.768L266.05 129.17L254.849 130.67C257.011 132.457 268.06 144.4 264.853 148.428H264.925ZM157.848 139.398C164.198 147.686 166.288 160.228 162.483 172.761C159.124 183.658 149.71 187.32 138.214 187.24C111.258 186.945 114.84 182.023 109.909 176.646C105.21 171.644 104.987 171.867 102.219 164.328C100.129 158.504 102.522 155.967 104.46 150.965C103.942 148.58 107.596 141.639 109.167 139.174C112.973 133.207 114.84 134.029 119.1 128.205L104.389 126.713L104.835 107.375C127.755 109.992 147.7 118.727 168.825 122.604L173.005 114.994L172.782 141.791C166.511 139.621 162.929 137.307 157.776 139.326L157.848 139.398ZM197.425 61.4709C201.231 64.6062 226.775 78.4156 224.909 92.8235C201.685 84.7659 181.071 75.1368 150.38 77.0036C125.147 78.5672 97.7432 89.6164 86.1675 102.828L90.1244 105.588C78.4051 140.219 72.9483 159.103 74.2966 194.189C74.7433 205.98 74.5199 214.484 80.7187 222.478C107.077 256.208 207.134 257.405 251.49 243.451C272.919 236.734 281.208 230.91 287.478 210.679C292.329 194.859 297.706 168.133 292.704 152.689C289.345 142.461 275.982 107.83 275.456 100.586L284.191 102.676L274.706 76.0303C263.808 67.8212 214.753 61.1039 197.425 61.4709Z" fill="#A7F24F"/>
<path fill-rule="evenodd" clip-rule="evenodd" d="M92.5896 65.8028C94.0097 59.7556 93.7863 62.5957 92.2944 56.9235L89.4544 47.3662C86.0957 56.397 86.0957 57.3703 86.9174 68.1961C77.6553 65.9544 81.6122 61.1757 67.348 58.0404L70.4115 61.9974C74.4482 67.151 75.6369 69.3848 75.1183 74.5384C65.186 75.1367 61.604 74.3868 58.9155 82.1492C72.4298 81.1759 71.2332 85.5078 79.0753 89.6882C76.9851 108.875 73.7701 124.623 74.7434 145.221L84.5241 109.92L79.2269 113.199C78.2536 101.336 91.4727 92.1533 100.28 87.4464C110.364 82.0774 124.397 77.7455 136.946 75.2803C163.081 70.0549 197.353 76.1818 218.487 86.3295C217.138 78.9421 200.864 66.9197 192.423 63.7126C184.661 60.8007 183.759 62.8191 180.704 58.2638C182.268 57.4421 181.071 57.2985 184.134 56.9235C196.979 55.3519 242.524 62.6675 253.429 65.2044C279.261 71.2516 293.374 78.3438 313.542 88.4915C308.013 76.7004 295.097 64.8375 294.499 60.6571C302.341 60.9523 324.367 73.7885 331.755 77.5221C327.798 55.2801 301.886 38.487 281.583 30.948C280.761 30.6448 276.277 29.153 275.982 29.0812C270.829 26.3209 274.411 29.9029 272.767 24.829C290.39 23.7042 300.394 28.3313 314.882 32.0649C288.228 -5.47845 236.253 -1.07472 200.337 17.8884C182.491 27.2862 177.114 33.7801 151.059 46.4009C141.645 50.9482 103.344 66.6245 92.7412 65.6512L92.5896 65.8028Z" fill="#7AA27C"/>
<path fill-rule="evenodd" clip-rule="evenodd" d="M47.2682 137.236C53.7621 140.371 70.4914 163.06 70.5632 163.363V202.916C59.7374 197.914 47.5634 191.724 52.5654 175.896C58.469 157.164 51.8953 154.699 47.2682 137.236ZM294.052 200.826C295.544 188.213 297.929 175.976 298.974 162.166C300.019 148.508 298.456 154.85 309.433 141.113C310.853 139.326 310.103 139.924 311.523 138.576C315.632 134.699 312.122 137.682 315.704 135.744C313.765 141.934 310.478 147.16 310.997 154.475C311.372 159.549 324.814 192.242 294.052 200.826ZM8.28889 110.733C23.3748 113.869 37.3359 122.828 43.6782 135.967C45.92 140.594 47.9383 146.418 49.6535 151.492C57.4239 174.484 46.5901 172.689 49.3584 186.57C51.4485 197.324 62.4977 200.308 71.0818 206.498L73.7703 220.236C69.3666 225.158 63.1679 232.554 55.6289 235.537C44.6515 231.206 35.6925 223.595 30.834 214.412C21.875 197.619 49.135 167.168 19.1865 123.873C15.1577 118.049 11.7193 116.182 8.28889 110.733ZM341.99 209.562C334.22 218.593 328.843 223.818 317.044 229.642C303.458 236.359 294.052 224.488 289.64 217.173L293.151 204.041C330.263 190.008 311.372 161.496 313.542 148.357C316.749 128.723 337.802 113.949 356.693 108.795C350.646 119.772 336.015 138.576 331.906 152.688C325.413 174.779 339.597 190.599 341.99 209.49V209.562ZM280.761 78.7906L288.452 82.3008C292.927 97.6739 296.661 129.625 294.571 146.338L281.128 107.231C286.21 109.696 282.476 108.348 288.595 109.696C287.702 97.2989 283.075 89.6164 280.761 78.7906ZM197.425 61.6224C214.753 61.2475 263.808 67.9647 274.706 76.1818L284.192 102.828L275.456 100.737C275.982 107.973 289.345 142.613 292.704 152.832C297.786 168.357 292.409 195.082 287.478 210.83C281.208 231.054 272.919 236.806 251.491 243.595C207.063 257.556 107.077 256.359 80.7189 222.621C74.5202 214.708 74.7436 206.131 74.2968 194.332C72.9486 159.254 78.4054 140.371 90.1247 105.739L86.1677 102.971C97.7434 89.6882 125.219 78.7188 150.381 77.1471C181.071 75.2085 201.686 84.8377 224.909 92.975C226.776 78.5672 201.159 64.6859 197.425 61.6224ZM92.518 65.8825C103.12 66.7761 141.422 51.1716 150.835 46.6242C176.891 34.0034 182.268 27.5095 200.114 18.1118C236.03 -0.85137 288.005 -5.25509 314.659 32.2882C300.171 28.6344 290.239 23.9275 272.544 25.0524C274.187 30.1262 270.605 26.4645 275.759 29.3045C275.982 29.4561 280.458 30.8762 281.351 31.1713C301.663 38.7103 327.575 55.5035 331.532 77.7455C324.216 74.0119 302.189 61.1757 294.275 60.8805C294.874 65.0608 307.71 76.9238 313.31 88.7149C293.23 78.5672 279.118 71.4031 253.206 65.4278C242.3 62.8909 196.684 55.5753 183.911 57.1469C180.848 57.5219 182.116 57.6655 180.473 58.4872C183.464 63.0425 184.438 61.0241 192.2 63.936C200.641 67.151 216.915 79.1655 218.255 86.5529C197.051 76.4052 162.858 70.3581 136.723 75.5037C124.174 77.9688 110.141 82.3008 100.057 87.6698C91.3214 92.3767 78.0304 101.559 79.0037 113.422L84.3009 110.143L74.5202 145.445C73.6267 124.846 76.8337 109.098 78.8521 89.9115C71.01 85.7312 72.2066 81.4072 58.6923 82.3726C61.3808 74.69 64.9629 75.3601 74.8952 74.7618C75.4137 69.6082 74.225 67.3744 70.1883 62.2207L67.1248 58.2638C81.389 61.3272 77.4321 66.1059 86.6943 68.4195C85.8725 57.5937 85.8725 56.6204 89.2312 47.5896L92.0633 57.1469C93.5631 62.8191 93.8583 59.979 92.3664 66.0261L92.518 65.8825ZM288.819 29.9029C294.347 30.7964 301.966 31.993 307.79 33.9316C313.542 35.8702 319.286 41.0239 323.466 40.8005C324.144 36.5483 321.823 34.2348 316.677 28.0361L306.816 18.032C274.858 -12.8659 214.825 0.568668 182.938 23.7839C165.092 36.7717 112.75 61.8458 97.5201 61.0241C93.9301 50.3498 94.7518 51.0998 95.6533 39.8272C84.0057 41.9174 86.1677 49.5361 81.6124 59.9072C75.2701 57.3703 68.2497 51.9933 59.0593 53.6367C60.9261 62.1489 67.8029 59.612 70.3399 70.5814C60.5591 73.9401 54.8072 74.9852 53.7621 86.1779C68.7682 85.811 64.8911 84.016 74.1452 91.9299C74.2968 101.407 71.9833 112.68 71.2334 122.381C70.3399 133.43 70.8584 145.596 71.01 156.789C66.7578 153.877 62.2025 145.516 56.5224 139.924C50.4035 133.877 47.34 130.742 41.3647 124.543C34.6474 117.531 10.6742 101.926 0 107.151C2.91188 111.707 4.40372 111.858 7.69055 115.369C13.5143 121.559 21.875 133.877 25.2336 142.158C43.3112 186.347 4.33192 202.916 42.7847 233.001C57.7908 244.792 63.2476 237.253 76.5386 223.746C99.7618 258.298 198.997 260.843 246.114 248.82C254.993 246.507 264.183 243.523 271.499 239.119C275.679 236.654 277.769 235.011 280.984 231.732C285.316 227.4 283.817 226.802 287.774 222.478C292.855 227.328 296.437 232.099 304.575 235.689C322.198 238.003 338.855 218.665 345.572 211.126C345.349 191.42 326.609 172.537 336.837 150.223C340.642 142.014 345.269 134.029 350.199 125.444C361.025 106.784 364.161 111.707 366.107 102.381C340.044 105.516 322.573 122.979 305.843 139.102C303.011 141.863 302.859 142.98 299.876 145.516C299.652 120.514 298.384 106.33 293.374 83.0427C303.234 85.6594 315.632 97.0756 320.706 97.4505C320.929 90.4381 308.308 72.895 305.173 69.4646C317.124 71.5547 330.191 84.3112 338.552 85.2844C331.085 56.7001 313.613 40.5771 288.747 29.9029H288.819Z" fill="#051804"/>
<path fill-rule="evenodd" clip-rule="evenodd" d="M341.99 209.49C339.597 190.599 325.484 174.779 331.906 152.689C336.015 138.576 350.646 119.693 356.693 108.795C337.802 113.949 316.677 128.652 313.541 148.357C311.372 161.496 330.263 189.929 293.15 204.041L289.64 217.173C294.052 224.488 303.386 236.279 317.044 229.642C328.843 223.818 334.22 218.593 341.99 209.562V209.49Z" fill="#A7F24F"/>
<path fill-rule="evenodd" clip-rule="evenodd" d="M159.196 235.458C163.081 232.698 165.466 232.331 170.692 231.653C182.794 229.937 202.204 229.714 212.431 235.458C202.651 243.452 169.423 242.032 159.196 235.458ZM232.144 225.238C231.474 219.933 230.956 220.978 232.894 216.279L239.093 218.665C236.333 225.087 237.003 223.443 232.144 225.238ZM125.889 206.275L124.549 202.023C160.089 206.945 141.796 205.382 179.356 203.14C198.774 202.023 214.976 206.427 234.913 205.605L229.312 208.964C196.157 218.593 141.725 200.38 130.747 209.115C130.667 209.036 128.282 207.544 127.835 207.32C127.612 207.177 127.014 207.249 126.862 206.722C126.71 206.275 126.192 206.355 125.889 206.204V206.275ZM125.889 206.275C128.21 214.341 143.591 230.464 151.13 234.644C175.104 247.927 210.94 244.265 232.296 228.741C239.165 223.747 253.804 209.339 256.046 200.531C243.569 202.318 234.538 204.185 220.649 203.587C209.153 203.14 198.175 200.683 187.046 200.683C148.219 200.755 166.44 207.767 121.788 198.736C122.012 201.951 119.77 197.843 122.754 203.443C125.594 208.669 123.799 204.855 125.889 206.204V206.275Z" fill="#010101"/>
<path fill-rule="evenodd" clip-rule="evenodd" d="M8.28882 110.662C11.7193 116.039 15.1577 117.977 19.1864 123.801C49.1349 167.168 21.8749 197.547 30.8339 214.341C35.7642 223.523 44.6514 231.134 55.6288 235.458C63.1678 232.474 69.3665 225.087 73.7702 220.156L71.0817 206.427C62.5694 200.156 51.5203 197.244 49.3583 186.498C46.59 172.617 57.4238 174.404 49.6535 151.42C47.9383 146.418 45.9199 140.522 43.6781 135.887C37.256 122.756 23.3747 113.869 8.28882 110.662Z" fill="#A7F24F"/>
<path fill-rule="evenodd" clip-rule="evenodd" d="M104.461 151.045C102.522 156.047 100.129 158.504 102.219 164.407C104.987 171.938 105.282 171.715 109.909 176.717C114.84 182.022 111.258 187.016 138.214 187.32C149.71 187.471 159.196 183.738 162.483 172.84C166.288 160.299 164.198 147.758 157.848 139.477C154.042 135.368 155.159 135.743 148.29 134.619C166.36 151.563 152.247 172.018 142.467 168.213C137.321 166.194 130.524 148.731 136.794 143.729C137.991 136.788 142.243 136.637 147.548 133.653C136.723 131.483 129.774 127.455 120.145 133.43C112.454 138.209 109.463 142.979 104.461 151.045Z" fill="white"/>
<path fill-rule="evenodd" clip-rule="evenodd" d="M220.497 140.889C225.651 129.768 237.896 136.709 239.612 148.356C241.335 160.148 236.476 168.66 225.204 167.91C217.362 162.086 214.378 150.143 220.497 140.817V140.889ZM210.118 140.746C202.132 156.566 206.608 180.004 217.29 183.514C228.339 187.168 238.2 188.141 250.071 184.855C254.849 183.514 266.425 172.17 268.363 164.256C270.525 155.592 267.693 154.18 264.853 148.428C261.191 141.567 255.296 135.217 248.124 131.34C236.253 131.412 216.165 135.297 210.046 140.746H210.118Z" fill="white"/>
<path fill-rule="evenodd" clip-rule="evenodd" d="M136.794 143.729C138.733 141.639 138.733 141.113 142.913 140.594C144.261 147.83 144.708 150.965 137.911 152.984L136.722 143.729H136.794ZM104.46 151.045C109.462 142.98 112.454 138.209 120.145 133.43C129.774 127.455 136.643 131.484 147.548 133.654C142.243 136.637 137.991 136.789 136.794 143.729C130.596 148.731 137.321 166.195 142.466 168.213C152.327 172.019 166.44 151.643 148.29 134.619C155.159 135.744 153.97 135.369 157.848 139.477C163.001 137.459 166.591 139.772 172.862 141.934L173.085 115.145L168.905 122.756C147.772 118.871 127.835 110.143 104.907 107.526L104.46 126.856L119.171 128.356C114.919 134.172 112.973 133.35 109.239 139.326C107.675 141.791 104.014 148.731 104.54 151.117L104.46 151.045Z" fill="#010101"/>
<path fill-rule="evenodd" clip-rule="evenodd" d="M210.118 140.746C216.245 135.217 236.333 131.412 248.204 131.34C255.368 135.217 261.343 141.639 264.925 148.428C268.14 144.399 257.011 132.457 254.921 130.67L266.122 129.17L266.569 109.768C244.542 111.108 224.909 118.727 205.044 121.408L201.462 113.645L201.686 140.291C203.473 140.291 205.786 139.772 206.313 139.772C209.895 139.772 208.778 139.924 210.27 140.746H210.118Z" fill="#010101"/>
<path fill-rule="evenodd" clip-rule="evenodd" d="M47.2681 137.235C51.8952 154.699 58.4688 157.236 52.5653 175.896C47.5632 191.723 59.8091 197.914 70.5631 202.916V163.362C70.4115 163.059 53.6902 140.371 47.2681 137.235Z" fill="#A7F24F"/>
<path fill-rule="evenodd" clip-rule="evenodd" d="M294.052 200.826C324.886 192.242 311.371 159.549 310.997 154.475C310.478 147.16 313.765 141.934 315.703 135.744C312.121 137.754 315.632 134.77 311.523 138.576C310.103 139.924 310.925 139.254 309.433 141.113C298.455 154.85 300.019 148.58 298.974 162.166C297.929 175.975 295.544 188.285 294.052 200.826Z" fill="#A7F24F"/>
<path fill-rule="evenodd" clip-rule="evenodd" d="M125.969 206.355C126.264 206.578 126.79 206.426 126.934 206.873C127.085 207.32 127.756 207.32 127.907 207.472C128.354 207.767 130.747 209.267 130.819 209.267C141.796 200.531 196.157 218.744 229.384 209.115L234.985 205.756C215.048 206.578 198.774 202.174 179.428 203.291C141.868 205.533 160.169 207.097 124.62 202.174L125.969 206.426V206.355Z" fill="white"/>
<path fill-rule="evenodd" clip-rule="evenodd" d="M220.497 140.889C224.605 140.889 228.188 142.309 226.026 149.25C224.159 155.145 225.954 151.268 222.22 152.984C219.228 149.33 219.452 151.563 220.497 140.889ZM220.497 140.889C214.378 150.143 217.362 162.166 225.204 167.99C236.476 168.732 241.335 160.227 239.612 148.428C237.896 136.789 225.651 129.848 220.497 140.969V140.889Z" fill="#010101"/>
<path fill-rule="evenodd" clip-rule="evenodd" d="M280.761 78.7188C283.075 89.5366 287.702 97.2271 288.595 109.617C282.476 108.276 286.21 109.617 281.128 107.151L294.57 146.266C296.661 129.625 292.927 97.6021 288.452 82.221L280.761 78.7188Z" fill="#7AA27C"/>
<path fill-rule="evenodd" clip-rule="evenodd" d="M159.196 235.458C169.352 242.031 202.651 243.451 212.432 235.458C202.204 229.714 182.714 229.937 170.692 231.652C165.467 232.402 163.081 232.697 159.196 235.458Z" fill="#F274EB"/>
<path fill-rule="evenodd" clip-rule="evenodd" d="M220.497 140.889C219.38 151.563 219.229 149.33 222.22 152.983C225.954 151.268 224.231 155.145 226.026 149.25C228.188 142.309 224.606 140.889 220.497 140.889Z" fill="white"/>
<path fill-rule="evenodd" clip-rule="evenodd" d="M136.794 143.729L137.991 152.984C144.78 151.045 144.333 147.83 142.993 140.594C138.813 141.113 138.813 141.639 136.866 143.729H136.794Z" fill="white"/>
<path fill-rule="evenodd" clip-rule="evenodd" d="M232.224 225.238C237.075 223.372 236.405 225.015 239.165 218.665L232.966 216.279C230.956 221.058 231.475 220.013 232.224 225.238Z" fill="#F3EEE7"/>
<path fill-rule="evenodd" clip-rule="evenodd" d="M174.649 179.111L181.223 176.047L176.372 185.078H175.104L174.649 179.111Z" fill="black"/>
<path fill-rule="evenodd" clip-rule="evenodd" d="M189.735 175.226L190.03 177.842L193.692 185.748L195.487 178.887L192.352 175.226H189.735Z" fill="black"/>
</svg>
