<svg width="301" height="288" viewBox="0 0 301 288" fill="none" xmlns="http://www.w3.org/2000/svg">
<path fill-rule="evenodd" clip-rule="evenodd" d="M178.798 83.8162C182.723 78.87 186.065 73.1499 190.66 69.3445C229.289 87.1509 253.286 154.403 255.679 196.414C256.445 209.37 252.041 212.322 245.444 218.417C221.159 240.611 159.1 258.234 122.291 251.373C92.6537 245.852 50.8662 226.419 36.0436 209.841C36.9052 193.271 38.3412 179.262 41.7796 163.833C49.143 130.973 73.3316 82.3882 99.9135 71.0518C106.607 77.2505 135.295 125.444 143.041 131.731L178.798 83.9119V83.8162ZM5.06595 194.699C8.21716 201.935 29.9246 222.605 37.5753 228.796C40.7265 231.373 41.971 232.322 45.3217 234.42C50.7705 237.946 56.0278 241.273 62.1468 244.329C112.638 269.379 189.799 268.326 239.612 242.135C261.702 230.511 285.508 208.891 296.126 190.503C282.452 176.502 272.696 195.082 261.702 116.493C259.5 100.873 254.53 89.1533 248.411 76.4846C242.197 63.816 229.097 46.576 227.948 42.1005C238.655 44.1907 256.349 83.9119 259.979 94.6819C262.277 101.439 263.33 110.869 266.481 116.685C282.261 116.685 286.082 115.065 294.212 105.923C288.954 101.16 274.802 100.968 260.936 66.7677C249.656 38.8615 255.2 38.6701 241.431 32.95C237.227 31.2348 232.248 28.9532 227.757 27.3337C185.204 11.7132 159.866 0.0896511 106.703 4.18224C93.3159 5.2353 90.3561 10.9474 84.1414 17.6168C65.2102 38.1914 51.7278 58.6703 42.1625 85.4357C23.5185 137.451 42.2582 160.594 4.97021 194.508L5.06595 194.699Z" fill="#6D61D2"/>
<path fill-rule="evenodd" clip-rule="evenodd" d="M93.22 230.607C97.9109 218.13 118.948 196.127 137.114 192.601L144.669 198.983L152.032 193.646C165.315 189.171 194.003 218.513 197.449 234.037C177.944 240.42 174.306 246.227 144.573 246.515C125.354 246.706 104.126 240.898 93.22 230.607ZM165.602 175.648L172.296 174.691C171.538 179.932 170.772 177.172 172.583 181.839C181.382 184.982 183.871 181.36 186.544 173.167L190.469 172.697L234.163 168.117C229.384 217.651 157.289 200.028 158.534 176.406L165.698 175.553L165.602 175.648ZM92.6536 171.261L101.062 171.643C101.732 177.738 101.637 174.691 98.6768 178.504C105.849 183.267 110.627 182.884 114.257 174.125L117.608 174.22L134.05 176.598C129.271 206.889 59.0912 211.173 57.0808 169.17C65.976 166.498 82.3224 170.886 92.5579 171.261H92.6536ZM143.041 131.731C135.295 125.444 106.607 77.2507 99.9134 71.052C73.3315 82.4841 49.1429 131.069 41.7795 163.833C38.341 179.262 36.9051 193.367 36.0435 209.841C50.8661 226.514 92.5579 245.948 122.291 251.373C159.1 258.234 221.159 240.611 245.444 218.417C252.041 212.322 256.445 209.458 255.679 196.414C253.286 154.404 229.289 87.0553 190.66 69.3447C186.161 73.2458 182.818 78.8702 178.797 83.8164L143.041 131.635V131.731Z" fill="#010101"/>
<path fill-rule="evenodd" clip-rule="evenodd" d="M140.744 267.568C142.85 266.523 141.605 266.523 144.573 266.044C145.809 265.853 148.107 265.948 149.352 265.948C151.841 272.235 154.609 277.189 139.403 273.854L140.744 267.568ZM152.503 266.523C160.441 264.903 155.183 266.331 157.098 267.281C159.962 278.138 152.598 285.095 141.509 283.858C134.816 280.332 129.272 274.237 134.05 265.661L137.018 265.757C138.262 269.187 137.018 269.857 136.731 275.378C145.53 278.043 146.767 278.521 154.513 275.091L152.503 266.427V266.523ZM161.206 273.663C169.623 274.524 167.804 276.519 172.296 273.567C167.038 270.711 164.653 273.088 160.345 267.664C164.557 264.52 167.23 265.565 173.061 265.095C178.327 264.712 182.435 263.754 187.788 263.379C184.829 269.57 165.227 292.809 161.302 273.663H161.206ZM102.594 261.943L129.846 265.661C128.889 270.615 130.325 269.666 126.495 271.948C123.727 273.567 124.684 271.19 119.515 275.569L129.654 274.62C121.717 293.575 105.466 264.999 102.594 261.856V261.943ZM4.97014 194.699C42.2582 160.786 23.4227 137.642 42.1624 85.6271C51.8235 58.8618 65.2102 38.3829 84.1414 17.8083C90.356 11.0431 93.3158 5.42678 106.702 4.37371C159.866 0.281123 185.204 11.9047 227.757 27.5252C232.248 29.1446 237.322 31.4263 241.431 33.1415C255.2 38.9573 249.56 39.1487 260.936 66.9592C274.802 101.064 288.859 101.248 294.212 106.106C286.082 115.257 282.261 116.876 266.481 116.876C263.234 111.06 262.181 101.631 259.979 94.8654C256.349 84.0077 238.655 44.3821 227.948 42.292C229.097 46.6718 242.197 63.9117 248.411 76.6761C254.53 89.3448 259.5 101.064 261.702 116.685C272.791 195.265 282.452 176.693 296.126 190.694C285.412 209.179 261.607 230.703 239.612 242.326C189.799 268.517 112.638 269.57 62.1467 244.512C55.932 241.465 50.7704 238.13 45.3216 234.612C41.971 232.418 40.7264 231.564 37.5752 228.987C30.0203 222.892 8.31282 202.126 5.06587 194.89L4.97014 194.699ZM0.095733 194.986C2.67255 199.749 2.00242 198.034 6.21467 202.222C8.79148 204.791 9.94028 206.889 12.1421 209.649C23.5184 223.842 42.4496 238.226 59.4742 246.993C65.4974 250.136 71.9992 252.705 79.267 255.474C88.5371 258.992 95.5176 258.521 99.5305 263.379C107.277 272.618 114.928 291.573 130.995 279.662C132.239 280.524 131.856 280.141 133.38 281.569C143.616 290.903 150.117 287.951 159.292 279.471C180.425 292.052 184.733 267.664 192.95 262.614C194.865 261.473 212.264 257.276 215.998 255.944C234.45 249.562 262.755 234.516 273.94 221.847C280.729 214.221 298.895 198.792 301.001 187.08C288.476 183.746 278.336 176.119 274.419 163.354C270.685 150.877 267.055 134.212 265.811 120.681C282.644 120.211 295.456 116.589 299.086 102.588C279.102 96.8678 272.983 85.3399 263.713 64.3904C249.273 31.8092 264.949 38.2871 229.384 24.3819C188.937 8.57001 155.183 -3.9072 104.413 1.13474C90.8347 2.47501 88.1542 7.80415 81.4608 15.2394C62.8168 36.2847 49.3344 55.7185 38.8198 84.0077C25.2416 120.394 32.3179 147.072 17.9739 174.404C12.5251 184.791 4.39574 187.934 0 194.986H0.095733Z" fill="#050326"/>
<path fill-rule="evenodd" clip-rule="evenodd" d="M141.605 230.798C134.242 227.368 130.516 218.983 128.027 209.936C132.335 214.133 135.582 213.079 142.946 213.079C148.586 213.079 154.896 212.601 159.579 211.556C157.577 220.794 152.886 235.178 141.605 230.798ZM93.2202 230.607C104.126 240.898 125.355 246.706 144.573 246.514C174.306 246.227 177.944 240.419 197.45 234.037C194.003 218.512 165.411 189.17 152.032 193.646L144.669 198.983L137.114 192.601C118.948 196.127 97.9111 218.129 93.2202 230.607Z" fill="#F3EEE7"/>
<path fill-rule="evenodd" clip-rule="evenodd" d="M117.608 174.22C115.406 182.03 112.447 186.41 102.786 186.027C94.5605 181.743 95.5179 179.453 92.5581 171.26C82.3227 170.885 65.9762 166.497 57.0811 169.17C59.0914 211.173 129.272 206.889 134.05 176.597L117.608 174.22Z" fill="white"/>
<path fill-rule="evenodd" clip-rule="evenodd" d="M190.373 172.696C187.884 182.03 187.693 181.935 180.904 187.551C169.336 187.647 168.953 183.937 165.507 175.648L158.343 176.502C157.098 200.028 229.193 217.747 233.972 168.213L190.278 172.792L190.373 172.696Z" fill="white"/>
<path fill-rule="evenodd" clip-rule="evenodd" d="M141.605 230.798L136.922 226.897C141.318 221.943 146.863 222.509 152.032 226.227C150.883 228.038 152.032 228.7 148.203 230.224C145.81 231.181 144.477 230.798 141.51 230.894L141.605 230.798ZM141.605 230.798C152.886 235.274 157.672 220.794 159.579 211.556C154.896 212.601 148.682 213.08 142.945 213.08C135.582 213.08 132.239 214.133 128.027 209.937C130.516 218.983 134.242 227.368 141.605 230.798Z" fill="#010101"/>
<path fill-rule="evenodd" clip-rule="evenodd" d="M102.69 261.943C105.657 264.999 121.908 293.575 129.75 274.708L119.611 275.665C124.78 271.285 123.918 273.663 126.591 272.043C130.42 269.762 128.984 270.615 129.942 265.757L102.69 262.039V261.943Z" fill="#6D61D2"/>
<path fill-rule="evenodd" clip-rule="evenodd" d="M161.302 273.663C165.315 292.714 184.829 269.474 187.788 263.379C182.435 263.754 178.423 264.712 173.062 265.095C167.23 265.565 164.653 264.52 160.345 267.663C164.653 273.184 167.038 270.711 172.296 273.567C167.804 276.519 169.719 274.524 161.207 273.663H161.302Z" fill="#6D61D2"/>
<path fill-rule="evenodd" clip-rule="evenodd" d="M154.609 275.187C146.863 278.617 145.618 278.138 136.826 275.474C137.018 269.945 138.358 269.187 137.114 265.853L134.146 265.757C129.367 274.333 134.816 280.332 141.605 283.954C152.79 285.095 160.058 278.234 157.194 267.376C155.279 266.427 160.536 264.999 152.599 266.618L154.609 275.282V275.187Z" fill="#E0DCA6"/>
<path fill-rule="evenodd" clip-rule="evenodd" d="M117.608 174.22L114.258 174.124C110.532 182.884 105.849 183.267 98.677 178.504C101.637 174.691 101.732 177.738 101.062 171.643L92.6538 171.26C95.6136 179.549 94.6562 181.839 102.881 186.027C112.447 186.41 115.502 182.03 117.704 174.22H117.608Z" fill="#8274D0"/>
<path fill-rule="evenodd" clip-rule="evenodd" d="M165.507 175.648C168.953 183.937 169.336 187.647 180.904 187.551C187.597 181.935 187.884 182.03 190.373 172.696L186.448 173.167C183.776 181.36 181.287 184.982 172.487 181.839C170.58 177.076 171.442 179.932 172.2 174.691L165.507 175.648Z" fill="#8274D0"/>
<path fill-rule="evenodd" clip-rule="evenodd" d="M149.352 265.948C148.107 265.948 145.809 265.853 144.573 266.044C141.605 266.523 142.945 266.523 140.744 267.568L139.403 273.854C154.609 277.285 151.745 272.235 149.352 265.948Z" fill="#ED2073"/>
<path fill-rule="evenodd" clip-rule="evenodd" d="M141.605 230.798C144.573 230.798 145.905 231.181 148.299 230.128C152.128 228.604 150.979 227.942 152.128 226.131C146.958 222.414 141.414 221.847 137.018 226.801L141.701 230.703L141.605 230.798Z" fill="#ED88AB"/>
<path d="M131.186 215.936L126.399 205.27L161.494 204.791L156.811 216.893" stroke="black" stroke-width="0.747674" stroke-miterlimit="22.926"/>
</svg>
