<svg width="238" height="291" viewBox="0 0 238 291" fill="none" xmlns="http://www.w3.org/2000/svg">
<path fill-rule="evenodd" clip-rule="evenodd" d="M29.7573 233.102C21.7237 233.98 18.5884 229.217 14.073 224.957C-1.22831 210.421 -0.981005 198.008 16.7057 179.842L22.8565 180.337C33.2675 185.227 23.7341 211.921 29.7573 233.23V233.102ZM216.54 179.842C226.832 182.85 236.238 202.276 233.605 210.541C232.225 215.056 219.428 235.104 208.14 233.102L210.023 185.355L216.421 179.842H216.54ZM36.9053 145.123L25.4892 146.878C33.3951 128.833 76.6744 117.05 92.4784 116.3C100.384 128.083 103.52 138.98 115.933 145.004C118.693 141.118 119.571 139.858 121.079 134.345L124.342 142.243C125.347 145.626 126.352 147.509 127.732 150.636C130.237 147.628 131.49 143.998 133.747 139.858C138.143 131.593 152.694 113.164 163.48 116.052C184.805 121.693 200.609 130.715 209.017 145.004L202.117 143.249C206.129 175.455 208.268 192.12 205.507 224.829C203.752 246.01 178.534 261.176 161.35 270.573C153.819 274.586 127.349 286.617 118.446 287.119C110.915 287.494 81.1899 275.336 74.2891 271.954C38.1579 253.78 27.1246 236.86 30.6348 197.513C32.1347 180.465 33.3951 161.797 36.7777 145.251L36.9053 145.123ZM192.081 50.5072C180.162 32.4615 157.585 6.39018 136.508 0C130.612 7.77033 130.74 13.5382 127.102 19.0509L126.472 8.3926C84.3251 13.9132 71.4012 41.1094 53.9698 68.1779C53.0842 59.905 55.0946 52.7649 56.4748 44.9945L47.3163 52.2623C38.1579 60.4076 32.015 68.0502 24.3643 77.2007C9.18265 95.2464 9.93256 99.5065 11.6877 128.585C7.54721 124.573 7.67486 123.448 6.0474 118.302C3.90936 121.19 3.90936 119.682 2.91214 126.703C-3.74131 170.939 7.54721 181.342 7.42755 185.858C2.40954 197.761 -4.74651 206.656 4.41196 218.814C11.6877 228.467 18.3411 235.735 31.1374 237.115C40.4156 258.415 70.396 275.336 91.6008 282.476C97.1214 284.359 113.428 290.502 118.693 290.247C129.607 289.872 160.975 274.714 169.376 269.696C187.94 258.415 193.836 252.153 206.257 236.987L215.918 236.612C217.921 232.855 224.574 228.714 227.709 225.084C246.026 204.526 235.36 196.508 222.564 178.59C226.576 161.669 232.352 145.626 234.738 127.955C236.995 111.29 231.22 86.7262 221.558 78.7005L214.913 89.8534C216.293 75.5733 216.923 68.4252 209.648 57.1446C205.252 50.3795 198.104 39.3543 190.701 36.0914L191.953 50.6268L192.081 50.5072Z" fill="#010101"/>
<path fill-rule="evenodd" clip-rule="evenodd" d="M117.193 264.686C113.93 265.436 114.305 266.56 114.305 263.936C111.17 263.936 113.93 264.311 113.675 261.175C109.415 254.785 103.264 248.012 102.387 237.489C114.68 238.989 126.224 240.744 137.385 236.612C136.507 248.267 129.232 260.545 121.581 265.563L117.193 264.686ZM111.92 218.814C99.5066 225.587 85.0749 237.489 60.3678 225.084C24.2365 206.911 43.5507 135.095 80.9344 134.345C105.897 133.842 105.522 154.904 120.073 170.061C127.229 162.171 130.365 152.518 136.133 146.631C158.59 123.447 191.953 135.095 196.724 177.082C200.114 206.536 196.971 222.324 171.889 228.842C158.462 232.352 144.038 229.719 133.245 221.949C117.816 210.924 131.489 222.699 120.329 207.788C116.06 211.298 117.066 211.043 114.553 217.816L111.92 219.069V218.814ZM36.9052 145.251C33.5147 161.797 32.2622 180.464 30.7624 197.513C27.2442 236.859 38.2854 253.78 74.4166 271.953C81.3094 275.464 111.042 287.622 118.573 287.119C127.349 286.616 153.947 274.714 161.47 270.573C178.782 261.175 203.872 246.01 205.627 224.829C208.387 192.248 206.129 175.454 202.244 143.248L209.145 145.003C200.736 130.715 184.932 121.692 163.608 116.052C152.814 113.164 138.263 131.593 133.875 139.858C131.745 143.871 130.365 147.628 127.852 150.636C126.471 147.508 125.594 145.626 124.469 142.243L121.206 134.345C119.698 139.858 118.693 141.118 116.06 145.003C103.767 138.98 100.632 128.202 92.6059 116.299C76.6743 117.177 33.395 128.832 25.6167 146.878L37.0329 145.123L36.9052 145.251Z" fill="#FCC9AC"/>
<path fill-rule="evenodd" clip-rule="evenodd" d="M74.5363 142.116C63.0005 145.754 59.4823 151.019 54.0893 160.289C49.199 168.69 44.8112 178.462 44.6836 189.99C44.181 230.222 95.9885 232.48 110.915 211.418C123.966 192.998 102.387 133.468 74.4167 142.243L74.5363 142.116Z" fill="white"/>
<path fill-rule="evenodd" clip-rule="evenodd" d="M154.194 144.246C134.88 148.881 127.102 166.304 124.469 188.49C121.453 215.056 138.015 225.834 163.608 224.454C187.693 223.074 194.466 204.653 191.833 180.967C189.576 159.164 178.662 138.358 154.194 144.246Z" fill="white"/>
<path fill-rule="evenodd" clip-rule="evenodd" d="M74.5365 142.116C102.514 133.348 124.094 192.87 111.043 211.299C96.1163 232.352 44.3087 230.222 44.8113 189.863C44.931 178.462 49.1991 168.69 54.2171 160.161C59.6101 150.891 63.1203 145.626 74.6641 141.988L74.5365 142.116ZM154.194 144.246C178.782 138.358 189.576 159.164 191.833 180.967C194.338 204.781 187.693 223.074 163.608 224.454C138.015 225.962 121.454 215.056 124.469 188.49C126.974 166.177 134.88 148.881 154.194 144.246ZM114.553 217.561C117.066 210.796 116.061 211.044 120.329 207.533C131.49 222.571 117.816 210.669 133.245 221.702C144.039 229.464 158.462 232.097 171.889 228.595C196.971 222.077 199.987 206.408 196.724 176.835C191.953 134.848 158.59 123.32 136.133 146.376C130.365 152.271 127.23 162.044 120.073 169.815C105.522 154.776 105.897 133.596 80.9346 134.098C43.5509 134.848 24.2367 206.656 60.368 224.829C85.0751 237.235 99.5068 225.332 111.92 218.567L114.553 217.314V217.561Z" fill="#010101"/>
<path fill-rule="evenodd" clip-rule="evenodd" d="M29.7571 233.102C23.6063 211.801 33.2674 185.1 22.8564 180.217L16.7055 179.715C-0.981138 197.888 -1.22845 210.421 14.0729 224.829C18.5883 229.089 21.7235 233.852 29.7571 232.974V233.102Z" fill="#FCC9AC"/>
<path fill-rule="evenodd" clip-rule="evenodd" d="M210.022 185.355L208.14 233.102C219.428 235.105 232.097 215.057 233.605 210.541C236.237 202.276 226.832 182.85 216.54 179.843L210.15 185.355H210.022Z" fill="#FCC9AC"/>
<path fill-rule="evenodd" clip-rule="evenodd" d="M113.675 261.048L116.938 256.66L126.224 257.163C124.844 264.183 124.972 263.434 117.066 264.686L121.454 265.564C129.232 260.546 136.388 248.268 137.265 236.612C125.969 240.625 114.553 238.87 102.259 237.49C103.145 247.893 109.287 254.658 113.556 261.176L113.675 261.048Z" fill="#010101"/>
<path fill-rule="evenodd" clip-rule="evenodd" d="M113.675 261.048C114.058 264.183 111.17 263.808 114.306 263.808C114.306 266.441 113.931 265.308 117.193 264.558C125.091 263.306 124.844 264.183 126.352 257.043L117.066 256.541L113.803 260.92L113.675 261.048Z" fill="#ED2073"/>
</svg>
